<svg width="274" height="197" viewBox="0 0 274 197" fill="none" xmlns="http://www.w3.org/2000/svg">
<mask id="path-1-outside-1_1_517" maskUnits="userSpaceOnUse" x="-1.62598" y="-2" width="278" height="202" fill="black">
<rect fill="white" x="-1.62598" y="-2" width="278" height="202"/>
<path fill-rule="evenodd" clip-rule="evenodd" d="M259.663 196.864C251.349 195.732 242.292 194.38 232.988 192.992C205.375 188.871 175.59 184.427 156.62 184.427C98.7921 184.427 53.4842 187.905 16.0889 190.776C14.6043 190.89 13.1322 191.003 11.6722 191.115C4.40439 174.422 0.374023 155.994 0.374023 136.626C0.374023 61.1694 61.5434 0 137 0C212.456 0 273.625 61.1694 273.625 136.626C273.625 158.246 268.604 178.693 259.663 196.864Z"/>
</mask>
<path fill-rule="evenodd" clip-rule="evenodd" d="M259.663 196.864C251.349 195.732 242.292 194.38 232.988 192.992C205.375 188.871 175.59 184.427 156.62 184.427C98.7921 184.427 53.4842 187.905 16.0889 190.776C14.6043 190.89 13.1322 191.003 11.6722 191.115C4.40439 174.422 0.374023 155.994 0.374023 136.626C0.374023 61.1694 61.5434 0 137 0C212.456 0 273.625 61.1694 273.625 136.626C273.625 158.246 268.604 178.693 259.663 196.864Z" fill="white"/>
<path d="M259.663 196.864L259.393 198.846L260.821 199.04L261.458 197.747L259.663 196.864ZM232.988 192.992L233.283 191.014L232.988 192.992ZM16.0889 190.776L16.242 192.77H16.242L16.0889 190.776ZM11.6722 191.115L9.83847 191.913L10.4064 193.218L11.8249 193.109L11.6722 191.115ZM259.933 194.882C251.634 193.752 242.59 192.403 233.283 191.014L232.693 194.97C241.994 196.358 251.064 197.711 259.393 198.846L259.933 194.882ZM233.283 191.014C205.74 186.904 175.775 182.427 156.62 182.427V186.427C175.405 186.427 205.01 190.839 232.693 194.97L233.283 191.014ZM156.62 182.427C98.7096 182.427 53.3361 185.911 15.9358 188.782L16.242 192.77C53.6323 189.9 98.8745 186.427 156.62 186.427V182.427ZM15.9358 188.782C14.4511 188.896 12.9792 189.009 11.5195 189.121L11.8249 193.109C13.2851 192.997 14.7574 192.884 16.242 192.77L15.9358 188.782ZM13.5059 190.317C6.34573 173.871 2.37402 155.715 2.37402 136.626H-1.62598C-1.62598 156.274 2.46305 174.973 9.83847 191.913L13.5059 190.317ZM2.37402 136.626C2.37402 62.274 62.648 2 137 2V-2C60.4389 -2 -1.62598 60.0649 -1.62598 136.626H2.37402ZM137 2C211.351 2 271.625 62.274 271.625 136.626H275.625C275.625 60.0649 213.561 -2 137 -2V2ZM271.625 136.626C271.625 157.933 266.677 178.078 257.869 195.981L261.458 197.747C270.53 179.307 275.625 158.559 275.625 136.626H271.625Z" fill="#344B74" mask="url(#path-1-outside-1_1_517)"/>
</svg>
