<svg width="353" viewBox="0 0 353 0" fill="none" xmlns="http://www.w3.org/2000/svg">
<path d="M0 -5C-2.76142 -5 -5 -2.76142 -5 0C-5 2.76142 -2.76142 5 0 5V-5ZM356.536 3.53553C358.488 1.58291 358.488 -1.58291 356.536 -3.53553L324.716 -35.3553C322.763 -37.308 319.597 -37.308 317.645 -35.3553C315.692 -33.4027 315.692 -30.2369 317.645 -28.2843L345.929 0L317.645 28.2843C315.692 30.2369 315.692 33.4027 317.645 35.3553C319.597 37.308 322.763 37.308 324.716 35.3553L356.536 3.53553ZM0 5H353V-5H0V5Z" fill="#3D5684"/>
</svg>
