<svg width="366" height="201" viewBox="0 0 366 201" fill="none" xmlns="http://www.w3.org/2000/svg">
<path d="M5.47766 47.8148C2.64338 23.3753 22.8701 2.44922 47.3918 4.45139L180.527 15.3218C182.648 15.4949 184.779 15.4942 186.899 15.3197L317.259 4.59269C342.217 2.53896 362.615 24.204 359.063 48.993L352.52 94.6565C351.997 98.3105 351.995 102.02 352.514 105.675L359.207 152.78C362.702 177.375 342.619 198.925 317.839 197.169L183.713 187.665L47.418 197.248C22.88 198.973 2.89225 177.828 5.99408 153.426L11.531 109.867C11.928 106.744 11.9453 103.584 11.5826 100.457L5.47766 47.8148Z" fill="white"/>
</svg>
