<svg width="57" height="57" viewBox="0 0 57 57" fill="none" xmlns="http://www.w3.org/2000/svg">
<path d="M24.2538 6.82938C26.2102 3.6828 30.7898 3.6828 32.7462 6.82937L36.975 13.6309C37.6634 14.7379 38.7569 15.5324 40.0225 15.845L47.7978 17.7651C51.395 18.6533 52.8101 23.0088 50.4221 25.8418L45.2603 31.9654C44.4201 32.9622 44.0024 34.2477 44.0963 35.5479L44.6729 43.5361C44.9397 47.2316 41.2347 49.9234 37.8024 48.5277L30.3834 45.5109C29.1758 45.0198 27.8242 45.0198 26.6166 45.5109L19.1976 48.5277C15.7653 49.9234 12.0603 47.2316 12.3271 43.5361L12.9037 35.5479C12.9976 34.2477 12.5799 32.9622 11.7397 31.9654L6.57787 25.8418C4.18986 23.0088 5.60503 18.6533 9.20215 17.7651L16.9775 15.845C18.2431 15.5324 19.3366 14.7379 20.025 13.6309L24.2538 6.82938Z" fill="#E5AE31"/>
</svg>
