<svg width="588" height="588" viewBox="0 0 588 588" fill="none" xmlns="http://www.w3.org/2000/svg">
<path d="M215.018 117.526C222.76 91.9965 254.61 83.4625 274.079 101.7L332.28 156.217C339.13 162.634 348.215 166.122 357.6 165.937L437.33 164.366C464.002 163.841 481.961 191.494 470.632 215.647L436.768 287.845C432.782 296.343 432.273 306.061 435.348 314.929L461.48 390.272C470.222 415.476 449.472 441.101 423 437.791L343.871 427.894C334.557 426.73 325.157 429.248 317.674 434.914L254.094 483.049C232.824 499.152 202.042 487.335 197.01 461.137L181.97 382.822C180.199 373.604 174.899 365.442 167.198 360.076L101.772 314.482C79.8847 299.23 81.6103 266.302 104.972 253.421L174.806 214.916C183.025 210.384 189.15 202.821 191.874 193.839L215.018 117.526Z" fill="#E5AE31"/>
</svg>
