<svg width="445" height="445" viewBox="0 0 445 445" fill="none" xmlns="http://www.w3.org/2000/svg">
<path d="M174.243 75.7686C185.589 51.6244 218.337 47.7767 234.97 68.6335L268.961 111.255C274.813 118.593 283.3 123.355 292.613 124.527L346.702 131.331C373.171 134.661 386.95 164.617 372.254 186.881L342.222 232.379C337.052 240.213 335.145 249.756 336.908 258.975L347.151 312.519C352.164 338.721 327.932 361.083 302.216 353.986L249.665 339.484C240.617 336.987 230.952 338.123 222.729 342.649L174.97 368.937C151.6 381.801 122.845 365.665 121.647 339.015L119.2 284.554C118.779 275.178 114.712 266.336 107.867 259.914L68.1073 222.617C48.6509 204.365 55.1112 172.031 80.0872 162.657L131.126 143.501C139.913 140.202 147.065 133.603 151.057 125.108L174.243 75.7686Z" fill="#E5AE31"/>
</svg>
