<svg width="251" height="251" viewBox="0 0 251 251" fill="none" xmlns="http://www.w3.org/2000/svg">
<path d="M168.694 71.8336C178.722 69.5281 187.327 79.2356 183.835 88.9153L174.398 115.07C173.072 118.743 173.469 122.818 175.477 126.167L189.775 150.014C195.067 158.839 188.493 170.022 178.208 169.692L150.418 168.799C146.515 168.674 142.762 170.31 140.197 173.255L121.936 194.222C115.178 201.982 102.511 199.186 99.6465 189.302L91.9079 162.596C90.821 158.845 88.1055 155.782 84.5122 154.253L58.9279 143.365C49.4592 139.335 48.2039 126.424 56.7189 120.646L79.7266 105.033C82.958 102.84 85.0325 99.3111 85.3765 95.4211L87.8256 67.7244C88.732 57.474 100.623 52.2903 108.75 58.603L130.708 75.66C133.792 78.0557 137.79 78.938 141.596 78.0631L168.694 71.8336Z" fill="#E5AE31"/>
</svg>
