<svg width="312" height="312" viewBox="0 0 312 312" fill="none" xmlns="http://www.w3.org/2000/svg">
<path d="M106.471 79.0817C108.996 63.1863 127.729 55.9232 140.309 65.9619L165.272 85.8822C169.881 89.5596 175.823 91.1304 181.646 90.2107L213.192 85.2291C229.09 82.7186 241.787 98.2904 236.127 113.357L224.896 143.254C222.822 148.773 223.164 154.91 225.839 160.164L240.325 188.627C247.625 202.971 236.739 219.858 220.661 219.131L188.756 217.688C182.866 217.422 177.136 219.644 172.965 223.811L150.372 246.384C138.986 257.759 119.561 252.624 115.284 237.108L106.797 206.319C105.231 200.635 101.347 195.872 96.0947 193.193L67.6451 178.681C53.308 171.367 52.1891 151.307 65.6241 142.444L92.2834 124.858C97.2049 121.612 100.535 116.446 101.46 110.623L106.471 79.0817Z" fill="#E5AE31"/>
</svg>
