<svg width="519" height="519" viewBox="0 0 519 519" fill="none" xmlns="http://www.w3.org/2000/svg">
<path d="M244.792 66.5475C260.727 45.1522 293.584 47.9152 305.722 71.6711L342.006 142.684C346.277 151.043 353.643 157.403 362.535 160.408L438.081 185.947C463.353 194.491 470.879 226.593 452.036 245.478L395.711 301.931C389.081 308.575 385.309 317.546 385.198 326.932L384.254 406.672C383.939 433.347 355.733 450.425 331.949 438.34L260.855 402.217C252.487 397.965 242.789 397.15 233.828 399.944L157.699 423.688C132.232 431.631 107.274 410.082 111.418 383.729L123.804 304.951C125.262 295.679 123.04 286.204 117.614 278.545L71.507 213.479C56.083 191.713 68.8641 161.318 95.2082 157.115L173.958 144.551C183.227 143.072 191.552 138.032 197.159 130.504L244.792 66.5475Z" fill="#E5AE31"/>
</svg>
