<svg height="44" viewBox="0 0 0 44" fill="none" xmlns="http://www.w3.org/2000/svg">
<path d="M1 0C1 -0.552285 0.552285 -1 0 -1C-0.552285 -1 -1 -0.552285 -1 0H1ZM-0.707107 44.2071C-0.316583 44.5976 0.316583 44.5976 0.707107 44.2071L7.07107 37.8431C7.46159 37.4526 7.46159 36.8195 7.07107 36.4289C6.68054 36.0384 6.04738 36.0384 5.65685 36.4289L0 42.0858L-5.65685 36.4289C-6.04738 36.0384 -6.68054 36.0384 -7.07107 36.4289C-7.46159 36.8195 -7.46159 37.4526 -7.07107 37.8431L-0.707107 44.2071ZM-1 0V43.5H1V0H-1Z" fill="#3D5684"/>
</svg>
